<svg version="1.1" id="Layer_1" xmlns:x="ns_extend;" xmlns:i="ns_ai;" xmlns:graph="ns_graphs;" xmlns="http://www.w3.org/2000/svg" xmlns:xlink="http://www.w3.org/1999/xlink" x="0px" y="0px" viewBox="0 0 162.2 57.1" style="enable-background:new 0 0 162.2 57.1;" xml:space="preserve">
 <style type="text/css">
  .st0{fill:#FFFFFF;}
 </style>
 <metadata>
  <sfw xmlns="ns_sfw;">
   <slices>
   </slices>
   <sliceSourceBounds bottomLeftOrigin="true" height="57.1" width="162.2" x="88.5" y="36">
   </sliceSourceBounds>
  </sfw>
 </metadata>
 <g>
  <rect class="st0" width="16.8" height="16.8">
  </rect>
  <rect y="20.2" class="st0" width="16.8" height="16.8">
  </rect>
  <rect x="20.2" y="20.2" class="st0" width="16.8" height="16.8">
  </rect>
  <rect x="40.3" y="20.2" class="st0" width="16.8" height="16.8">
  </rect>
  <rect x="20.2" y="40.3" class="st0" width="16.8" height="16.8">
  </rect>
  <rect x="40.3" y="40.3" class="st0" width="16.8" height="16.8">
  </rect>
  <rect x="20.2" class="st0" width="16.8" height="16.8">
  </rect>
  <rect x="40.3" class="st0" width="16.8" height="16.8">
  </rect>
  <rect y="40.3" class="st0" width="16.8" height="16.8">
  </rect>
  <polygon class="st0" points="65.3,17.2 71.2,17.2 76.9,30.7 82.7,17.2 88.5,17.2 78.8,40.1 75.1,40.1 	">
  </polygon>
  <polygon class="st0" points="95.5,9.2 101.2,9.2 108.4,30.7 115.6,9.2 121.4,9.2 126.6,40.1 120.9,40.1 117.6,20.6 111,40.1 
		105.8,40.1 99.3,20.6 95.9,40.1 90.2,40.1 	">
  </polygon>
  <path class="st0" d="M132.9,7.8c1,0,1.9,0.4,2.6,1.1s1.1,1.6,1.1,2.6c0,1-0.4,1.9-1.1,2.6c-0.7,0.7-1.6,1.1-2.6,1.1
		c-1,0-1.9-0.4-2.6-1.1c-0.7-0.7-1.1-1.6-1.1-2.7c0-1,0.4-1.9,1.1-2.6C131,8.2,131.9,7.8,132.9,7.8 M130,17.2h5.7v22.9H130V17.2z">
  </path>
  <polygon class="st0" points="138.9,17.2 145.6,17.2 150.1,23.5 154.6,17.2 161.1,17.2 153.4,28 162.2,40.1 155.5,40.1 150,32.6 
		144.6,40.1 138.1,40.1 146.8,28.1 	">
  </polygon>
 </g>
</svg>